<svg xmlns="http://www.w3.org/2000/svg" viewBox="0 0 169.78 160.98">
  <defs>
    <style>.cls-1 {
      fill: #fff;
    }</style>
  </defs>
  <g id="Ebene_2" data-name="Ebene 2">
    <g id="Ebene_1-2" data-name="Ebene 1">
      <path class="cls-1"
            d="M52.55,91.21,45.83,72.74a1.4,1.4,0,0,0-2-.74A278.46,278.46,0,0,0,1.26,103a3.73,3.73,0,0,0-1,4.07l1,2.79a1.4,1.4,0,0,0,1.79.83L51.72,93A1.4,1.4,0,0,0,52.55,91.21Z"/>
      <path class="cls-1"
            d="M168.36,53,77.25,86.16a2,2,0,0,1-.24,0,1.15,1.15,0,0,1-1.12-.86,1.2,1.2,0,0,1,.79-1.41l.57-.21h0l90.33-32.88a1,1,0,0,0,0-2h0c-10.26-2.88-36.77-8-72.84,1.51a1.42,1.42,0,0,1-1.66-.8c-2.43-5.5-4-10.88-1.78-12.19,3.73-2.56,10.79-1.18,11.46-10.3.22-2.95-.64-5.61-3.85-6.46-.77-.2-.86-2.08-1.59-2.49-1.66-.92-5.94.36-6.09-1-.19-1.61,3.39-2.42,3.07-5.63C94.11,10,93.65,9.31,90,7.62c-2.36-1.1-3.39-1.78-6.84-5S71.43-.89,68,1.91c-7.31,6-11.4,20.77-8.37,26.45,2.3,4.33-3.06,4.47-7.25,8.27C39.73,48.11,45.58,65.3,47.46,69.9h0s8.25,22.6,8.25,22.6a1.41,1.41,0,0,1-.84,1.8L3.83,112.88A1.41,1.41,0,0,0,3,114.69l1,2.76a3.74,3.74,0,0,0,3.45,2.46,282.7,282.7,0,0,0,47-2.71l.21,0,.37,1c5.11,13.85-8.29,27-13.19,32.91-2.71,3.25-1.57,6.38.9,8.08,3.75,2.58,30.21,2.14,30.26-.53,0-2.12-2.73-1.85-3.83-2.36s-1.24-.85-1.92-1.17a10,10,0,0,0-2.41-.87c-1.05-.24-2-.5-2.79-.65-1.56-.27-2-.43-2-.78a.44.44,0,0,1,.17-.41h0a2.84,2.84,0,0,1,.29-.24c17.37-12.47,18-25.1,15.93-29.46a1,1,0,0,1,1.08-1.43c5.3,1.3,17.61,6.78,14.49,29.41h0a14.28,14.28,0,0,1-.41,2.7c-.09.5-.16.82-.18.93-.49,3.82,1.24,5.21,3.37,5.85,3.75,1.14,23.54,1,26.46.21.56-.14,1-.41,1-1.18,0-1.05-1.5-1.8-2.5-1.9-1.77-.17-3.13-1.57-4.67-2.28-2.75-1.26-6.42-.76-7.3-2.43-.74-1.41,1.76-8.29,2.32-17,.65-9.89-2.41-20-5.21-30.53a1.43,1.43,0,0,1,.83-1.67c38.55-16.1,57.5-39.43,63.92-48.83l0,0A1,1,0,0,0,168.36,53Z"/>
    </g>
  </g>
</svg>
