<svg id="Ebene_1" data-name="Ebene 1" xmlns="http://www.w3.org/2000/svg" viewBox="0 0 450 160">
  <defs>
    <style>.cls-1 {
      fill: #fff;
    }</style>
  </defs>
  <rect height="160" width="450" x="0" y="0" opacity="0">

  </rect>
  <path class="cls-1"
        d="M52.55,91.21,45.83,72.74a1.4,1.4,0,0,0-2-.74A278.46,278.46,0,0,0,1.26,103a3.73,3.73,0,0,0-1,4.07l1,2.79a1.4,1.4,0,0,0,1.79.83L51.72,93A1.4,1.4,0,0,0,52.55,91.21Z"/>
  <path class="cls-1"
        d="M168.36,53,77.25,86.16a2,2,0,0,1-.24,0,1.15,1.15,0,0,1-1.12-.86,1.2,1.2,0,0,1,.79-1.41l.57-.21h0l90.33-32.88a1,1,0,0,0,0-2h0c-10.26-2.88-36.77-8-72.84,1.51a1.42,1.42,0,0,1-1.66-.8c-2.43-5.5-4-10.88-1.78-12.19,3.73-2.56,10.79-1.18,11.46-10.3.22-2.95-.64-5.61-3.85-6.46-.77-.2-.86-2.08-1.59-2.49-1.66-.92-5.94.36-6.09-1-.19-1.61,3.39-2.42,3.07-5.63C94.11,10,93.65,9.31,90,7.62c-2.36-1.1-3.39-1.78-6.84-5S71.43-.89,68,1.91c-7.31,6-11.4,20.77-8.37,26.45,2.3,4.33-3.06,4.47-7.25,8.27C39.73,48.11,45.58,65.3,47.46,69.9h0s8.25,22.6,8.25,22.6a1.41,1.41,0,0,1-.84,1.8L3.83,112.88A1.41,1.41,0,0,0,3,114.69l1,2.76a3.74,3.74,0,0,0,3.45,2.46,282.7,282.7,0,0,0,47-2.71l.21,0,.37,1c5.11,13.85-8.29,27-13.19,32.91-2.71,3.25-1.57,6.38.9,8.08,3.75,2.58,30.21,2.14,30.26-.53,0-2.12-2.73-1.85-3.83-2.36s-1.24-.85-1.92-1.17a10,10,0,0,0-2.41-.87c-1.05-.24-2-.5-2.79-.65-1.56-.27-2-.43-2-.78a.44.44,0,0,1,.17-.41h0a2.84,2.84,0,0,1,.29-.24c17.37-12.47,18-25.1,15.93-29.46a1,1,0,0,1,1.08-1.43c5.3,1.3,17.61,6.78,14.49,29.41h0a14.28,14.28,0,0,1-.41,2.7c-.09.5-.16.82-.18.93-.49,3.82,1.24,5.21,3.37,5.85,3.75,1.14,23.54,1,26.46.21.56-.14,1-.41,1-1.18,0-1.05-1.5-1.8-2.5-1.9-1.77-.17-3.13-1.57-4.67-2.28-2.75-1.26-6.42-.76-7.3-2.43-.74-1.41,1.76-8.29,2.32-17,.65-9.89-2.41-20-5.21-30.53a1.43,1.43,0,0,1,.83-1.67c38.55-16.1,57.5-39.43,63.92-48.83l0,0A1,1,0,0,0,168.36,53Z"/>
  <path class="cls-1"
        d="M216.21,54c3,1,6.6,3.3,6.6,8.15,0,5.9-4.95,9.65-10.9,9.65H199.5a1,1,0,0,1-.95-1V37.76a1,1,0,0,1,.95-.95h11.66c5.9,0,10.75,4,10.75,9.3a8.61,8.61,0,0,1-5.7,7.85Zm-5.7-3a3.36,3.36,0,0,0,3.25-3.6,3.19,3.19,0,0,0-3.25-3.4h-4.15v7Zm.1,13.65c2.5,0,3.9-1.25,3.9-3.6a3.46,3.46,0,0,0-3.8-3.55h-4.35v7.15Z"/>
  <path class="cls-1"
        d="M234.1,37.76a1,1,0,0,1,1-.95h6.15a1,1,0,0,1,1,.95V58.61c0,3.65,2.6,5.7,6.15,5.7s6.25-2.05,6.25-5.7V37.76a1,1,0,0,1,.95-.95h6.15a1,1,0,0,1,1,.95V59c0,7.6-6.4,13.3-14.3,13.3s-14.2-5.7-14.2-13.3Z"/>
  <path class="cls-1"
        d="M275.71,37.21a.94.94,0,0,1,1-.9h.75c.5,0,.85.35,1.25.75l19.2,18.45h.05V37.76a1,1,0,0,1,.95-.95h6a1,1,0,0,1,.95.95V71.41a.88.88,0,0,1-.95.9h-.5a1.6,1.6,0,0,1-1.25-.55L283.66,52.21h-.05V70.86a1,1,0,0,1-.95,1h-6a1,1,0,0,1-.95-1Z"/>
  <path class="cls-1"
        d="M335.08,36.36a19.3,19.3,0,0,1,12.2,4.7.88.88,0,0,1,.1,1.35l-3.95,4.2a1.06,1.06,0,0,1-1.35,0,9.2,9.2,0,0,0-6.55-2.4,10,10,0,0,0,.05,20.05,11.82,11.82,0,0,0,4.45-.8v-2.9h-3.15a.91.91,0,0,1-.95-.9v-5a.92.92,0,0,1,.95-.95h10.05a.94.94,0,0,1,.9.95l.05,13.45a.89.89,0,0,1-.4.8,25.26,25.26,0,0,1-12.4,3.25,18,18,0,1,1,0-35.9Z"/>
  <path class="cls-1"
        d="M360.36,37.76a1,1,0,0,1,.95-.95H382a1,1,0,0,1,.95.95v5.45a1,1,0,0,1-.95.95H368.16v6.2h11.4a1,1,0,0,1,.95,1v5.45a1,1,0,0,1-.95,1h-11.4v6.75H382a1,1,0,0,1,.95,1v5.45a1,1,0,0,1-.95,1h-20.7a1,1,0,0,1-.95-1Z"/>
  <path class="cls-1"
        d="M395.16,37.76a1,1,0,0,1,.95-.95h20.7a1,1,0,0,1,.95.95v5.45a1,1,0,0,1-.95.95H403v6.2h11.4a1,1,0,0,1,.95,1v5.45a1,1,0,0,1-.95,1H403v6.75h13.85a1,1,0,0,1,.95,1v5.45a1,1,0,0,1-.95,1h-20.7a1,1,0,0,1-.95-1Z"/>
  <path class="cls-1"
        d="M202.36,97.11a1,1,0,0,1,.89-.8h.81a1.12,1.12,0,0,1,.85.5l11.6,21.6h.1l11.6-21.6a1.1,1.1,0,0,1,.85-.5h.8a1,1,0,0,1,.9.8l5.65,33.6a.92.92,0,0,1-.95,1.1h-5.9a1,1,0,0,1-.95-.8l-2.25-15.45h-.1l-8.4,16.2a1.17,1.17,0,0,1-.85.55h-.9a1.09,1.09,0,0,1-.85-.55l-8.45-16.2h-.1L204.5,131a1,1,0,0,1-.94.8h-5.91a.92.92,0,0,1-1-1.1Z"/>
  <path class="cls-1"
        d="M263.34,96.31a18,18,0,1,1-18,18A18,18,0,0,1,263.34,96.31Zm0,28a10,10,0,1,0-10-10A10,10,0,0,0,263.34,124.31Z"/>
  <path class="cls-1"
        d="M292.66,97.21a.94.94,0,0,1,.95-.9h.75c.5,0,.85.35,1.25.75l19.2,18.45h.05V97.76a1,1,0,0,1,.95-1h6a1,1,0,0,1,.95,1v33.65a.88.88,0,0,1-.95.9h-.5a1.6,1.6,0,0,1-1.25-.55l-19.45-19.55h-.05v18.65a1,1,0,0,1-.95.95h-5.95a1,1,0,0,1-1-.95Z"/>
  <path class="cls-1"
        d="M336.18,98a1.18,1.18,0,0,1,1.2-1.2h5.85a1.22,1.22,0,0,1,1.2,1.2v13.35l11.11-14a1.44,1.44,0,0,1,.95-.5h6.3a1.16,1.16,0,0,1,.9,1.85L352,113.51l12.76,16.4a1.17,1.17,0,0,1-.95,1.85h-6.91a1.41,1.41,0,0,1-.9-.35l-11.55-15.5v14.7a1.22,1.22,0,0,1-1.2,1.2h-5.85a1.18,1.18,0,0,1-1.2-1.2Z"/>
  <path class="cls-1"
        d="M374.51,97.76a1,1,0,0,1,.95-1h20.71a1,1,0,0,1,.95,1v5.45a1,1,0,0,1-.95,1H382.31v6.2h11.4a1,1,0,0,1,1,1v5.45a1,1,0,0,1-1,.95h-11.4v6.75h13.86a1,1,0,0,1,.95,1v5.45a1,1,0,0,1-.95.95H375.46a1,1,0,0,1-.95-.95Z"/>
  <path class="cls-1"
        d="M416.86,115l-11.05-16.7a.93.93,0,0,1,.8-1.45h6.5a1,1,0,0,1,.8.45l6.95,10.25,6.95-10.25a.92.92,0,0,1,.8-.45h6.5a.93.93,0,0,1,.8,1.45l-11.2,16.65v16a1,1,0,0,1-.95.95h-5.95a1,1,0,0,1-.95-.95Z"/>
</svg>
