<?xml version="1.0" encoding="utf-8"?>
<!-- Generator: Adobe Illustrator 26.0.2, SVG Export Plug-In . SVG Version: 6.00 Build 0)  -->
<svg version="1.1" id="Gruppe_756" xmlns="http://www.w3.org/2000/svg" x="0px"
     y="0px"
     viewBox="0 0 40 55" xml:space="preserve" width="40px" height="55px">
<style type="text/css">
	.st0 {
    fill-rule: evenodd;
    clip-rule: evenodd;
    fill: #020202;
  }

  .st1 {
    fill-rule: evenodd;
    clip-rule: evenodd;
    fill: #FFFFFF;
  }
</style>
  <path id="Pfad_65" class="st0" d="M20.1,0.1c11.2,0.2,20.2,9.4,20,20.7c0,10.1-9.7,24.4-17.2,32.8c-1.4,1.6-3.8,1.7-5.3,0.3
	c-0.1-0.1-0.2-0.2-0.3-0.3C9.8,45.1,0.1,30.8,0.1,20.8C-0.1,9.5,8.9,0.3,20.1,0.1z M20.1,10.3c5.9,0,10.7,4.8,10.7,10.7
	S26,31.7,20.1,31.7S9.4,27,9.4,21C9.4,15.1,14.2,10.3,20.1,10.3C20.1,10.3,20.1,10.3,20.1,10.3z"/>
  <circle class="st1" cx="20.2" cy="20.8" r="10.7"/>
</svg>
