<?xml version="1.0" encoding="iso-8859-1"?>
<!-- Generator: Adobe Illustrator 27.7.0, SVG Export Plug-In . SVG Version: 6.00 Build 0)  -->
<svg id="Ebene_1" xmlns="http://www.w3.org/2000/svg" x="0px"
     y="0px"
     width="71.164px" height="71.164px" viewBox="0 0 71.164 71.164"
     xml:space="preserve">
<g>
	<path d="M35.582,53.931c-10.118,0-18.349-8.231-18.349-18.349s8.231-18.349,18.349-18.349s18.349,8.231,18.349,18.349
		S45.7,53.931,35.582,53.931z M35.582,20.233c-8.463,0-15.349,6.886-15.349,15.349s6.886,15.349,15.349,15.349
		s15.349-6.885,15.349-15.349S44.046,20.233,35.582,20.233z"/>
</g>
  <g>
	<path d="M24.515,46.649l5.938-16.197l16.197-5.938l-5.937,16.197L24.515,46.649z M32.79,32.79l-3.231,8.815l8.815-3.231
		l3.231-8.815L32.79,32.79z"/>
</g>
</svg>
