<?xml version="1.0" encoding="iso-8859-1"?>
<!-- Generator: Adobe Illustrator 27.7.0, SVG Export Plug-In . SVG Version: 6.00 Build 0)  -->
<svg id="Ebene_1" xmlns="http://www.w3.org/2000/svg" x="0px"
     y="0px"
     width="71.164px" height="71.164px" viewBox="0 0 71.164 71.164"
     xml:space="preserve">
<path d="M48.812,24.688h-26.46c-3.222,0-5.843,2.621-5.843,5.843v10.101c0,3.222,2.621,5.843,5.843,5.843h26.46
	c3.222,0,5.844-2.621,5.844-5.843V30.532C54.655,27.309,52.034,24.688,48.812,24.688z M51.655,40.632
	c0,1.568-1.276,2.843-2.844,2.843h-26.46c-1.568,0-2.843-1.275-2.843-2.843V30.532c0-1.568,1.275-2.843,2.843-2.843h0.565v7.894
	h3.134v-7.894h4.265v7.894h3.134v-7.894h4.265v7.894h3.134v-7.894h4.265v7.894h3.134v-7.894h0.565c1.568,0,2.844,1.275,2.844,2.843
	V40.632z"/>
</svg>
