<?xml version="1.0" encoding="iso-8859-1"?>
<!-- Generator: Adobe Illustrator 27.7.0, SVG Export Plug-In . SVG Version: 6.00 Build 0)  -->
<svg id="Ebene_1" xmlns="http://www.w3.org/2000/svg" x="0px"
     y="0px"
     width="71.164px" height="71.164px" viewBox="0 0 71.164 71.164"
     xml:space="preserve">
<g>
	<g>
		<path d="M47.224,31.477c-1.919,0-2.938-0.694-3.758-1.252c-0.647-0.441-1.075-0.732-2.07-0.732c-0.993,0-1.42,0.291-2.067,0.731
			c-0.819,0.559-1.838,1.253-3.757,1.253c-1.917,0-2.936-0.694-3.754-1.253c-0.646-0.44-1.072-0.731-2.064-0.731
			c-0.993,0-1.42,0.291-2.066,0.731c-0.818,0.559-1.837,1.253-3.755,1.253s-2.937-0.694-3.755-1.253
			c-0.646-0.44-1.073-0.731-2.065-0.731v-3c1.918,0,2.937,0.694,3.755,1.253c0.646,0.44,1.073,0.731,2.065,0.731
			c0.993,0,1.419-0.291,2.066-0.731c0.818-0.559,1.837-1.253,3.756-1.253c1.917,0,2.936,0.694,3.754,1.253
			c0.646,0.44,1.072,0.731,2.064,0.731c0.994,0,1.421-0.291,2.067-0.731c0.819-0.559,1.838-1.253,3.756-1.253
			c1.919,0,2.939,0.694,3.758,1.253c0.647,0.44,1.075,0.731,2.069,0.731s1.422-0.291,2.07-0.732
			c0.819-0.558,1.839-1.252,3.758-1.252v3c-0.995,0-1.422,0.291-2.069,0.731C50.163,30.783,49.143,31.477,47.224,31.477z"/>
	</g>
  <g>
		<path d="M47.224,38.074c-1.919,0-2.938-0.694-3.758-1.252c-0.647-0.441-1.075-0.732-2.07-0.732c-0.993,0-1.42,0.291-2.067,0.731
			c-0.819,0.559-1.838,1.253-3.757,1.253c-1.917,0-2.936-0.694-3.754-1.253c-0.646-0.44-1.072-0.731-2.064-0.731
			c-0.993,0-1.42,0.291-2.066,0.731c-0.818,0.559-1.837,1.253-3.755,1.253s-2.937-0.694-3.755-1.253
			c-0.646-0.44-1.073-0.731-2.065-0.731v-3c1.918,0,2.937,0.694,3.755,1.253c0.646,0.44,1.073,0.731,2.065,0.731
			c0.993,0,1.419-0.291,2.066-0.731c0.818-0.559,1.837-1.253,3.756-1.253c1.917,0,2.936,0.694,3.754,1.253
			c0.646,0.44,1.072,0.731,2.064,0.731c0.994,0,1.421-0.291,2.067-0.731c0.819-0.559,1.838-1.253,3.756-1.253
			c1.919,0,2.939,0.694,3.758,1.253c0.647,0.44,1.075,0.731,2.069,0.731s1.422-0.291,2.07-0.732
			c0.819-0.558,1.839-1.252,3.758-1.252v3c-0.995,0-1.422,0.291-2.069,0.731C50.163,37.38,49.143,38.074,47.224,38.074z"/>
	</g>
  <g>
		<path d="M47.224,44.671c-1.919,0-2.938-0.694-3.758-1.252c-0.647-0.441-1.075-0.732-2.07-0.732c-0.993,0-1.42,0.291-2.067,0.731
			c-0.819,0.559-1.838,1.253-3.757,1.253c-1.917,0-2.936-0.694-3.754-1.253c-0.646-0.44-1.072-0.731-2.064-0.731
			c-0.993,0-1.42,0.291-2.066,0.731c-0.818,0.559-1.837,1.253-3.755,1.253s-2.937-0.694-3.755-1.253
			c-0.646-0.44-1.073-0.731-2.065-0.731v-3c1.918,0,2.937,0.694,3.755,1.253c0.646,0.44,1.073,0.731,2.065,0.731
			c0.993,0,1.419-0.291,2.066-0.731c0.818-0.559,1.837-1.253,3.756-1.253c1.917,0,2.936,0.694,3.754,1.253
			c0.646,0.44,1.072,0.731,2.064,0.731c0.994,0,1.421-0.291,2.067-0.731c0.819-0.559,1.838-1.253,3.756-1.253
			c1.919,0,2.939,0.694,3.758,1.253c0.647,0.44,1.075,0.731,2.069,0.731s1.422-0.291,2.07-0.732
			c0.819-0.558,1.839-1.252,3.758-1.252v3c-0.995,0-1.422,0.291-2.069,0.731C50.163,43.976,49.143,44.671,47.224,44.671z"/>
	</g>
</g>
</svg>
