<?xml version="1.0" encoding="iso-8859-1"?>
<!-- Generator: Adobe Illustrator 27.7.0, SVG Export Plug-In . SVG Version: 6.00 Build 0)  -->
<svg id="Ebene_1" xmlns="http://www.w3.org/2000/svg" x="0px" y="0px"
     width="71.164px" height="71.164px" viewBox="0 0 71.164 71.164"
     xml:space="preserve">
<g>
	<g>
		<rect x="34.082" y="25.425" width="3" height="12.723"/>
	</g>
  <g>
		<rect x="34.082" y="41.833" width="3" height="3.906"/>
	</g>
  <g>
		<path d="M44.908,53.931H26.255c-4.975,0-9.022-4.047-9.022-9.022V26.255c0-4.975,4.047-9.022,9.022-9.022h18.653
			c4.975,0,9.022,4.047,9.022,9.022v18.653C53.931,49.883,49.883,53.931,44.908,53.931z M26.255,20.233
			c-3.321,0-6.022,2.702-6.022,6.022v18.653c0,3.321,2.702,6.022,6.022,6.022h18.653c3.321,0,6.022-2.702,6.022-6.022V26.255
			c0-3.321-2.702-6.022-6.022-6.022H26.255z"/>
	</g>
</g>
</svg>
